<svg xmlns="http://www.w3.org/2000/svg" viewBox="0 0 64 80" x="0px" y="0px"><path d="M22.629,32.929a6.427,6.427,0,0,0,2.392.5,4.686,4.686,0,0,0,2.8-.907,6.96,6.96,0,0,0,2.606-4.847,3.431,3.431,0,0,0-2.345-3.033l-10.77-3.59a1,1,0,0,0-.632,1.9l1.074.359a7.24,7.24,0,0,0-.228,4.948C18.23,30.283,19.945,31.855,22.629,32.929Zm-2.97-8.989,7.794,2.6a1.428,1.428,0,0,1,.981,1.228A5.139,5.139,0,0,1,26.505,31a3.27,3.27,0,0,1-3.134.067c-2.111-.844-3.438-2.006-3.944-3.452A5.319,5.319,0,0,1,19.659,23.94Z"/><path d="M46.684,21.052l-10.77,3.589a3.433,3.433,0,0,0-2.345,3.034,6.96,6.96,0,0,0,2.606,4.847,4.686,4.686,0,0,0,2.8.907,6.431,6.431,0,0,0,2.392-.5c2.684-1.074,4.4-2.646,5.1-4.674a7.24,7.24,0,0,0-.228-4.948l1.074-.359a1,1,0,0,0-.632-1.9Zm-2.1,6.551c-.5,1.454-1.831,2.621-3.95,3.468A3.276,3.276,0,0,1,37.495,31a5.18,5.18,0,0,1-1.93-3.192,1.44,1.44,0,0,1,.982-1.274l7.793-2.6A5.342,5.342,0,0,1,44.579,27.6Z"/><path d="M24.256,38.885a2.049,2.049,0,0,1,1.542-.306,4.042,4.042,0,0,0,4.169-1.726l.865-1.3a1,1,0,0,0-1.664-1.11l-.865,1.3a2.05,2.05,0,0,1-2.114.875,4.059,4.059,0,0,0-4.768,3.18,2.98,2.98,0,0,0,2.432,3.524l3.507.585a.992.992,0,0,1,.427.183l2.64,1.98a2.63,2.63,0,0,0,3.145,0l2.641-1.98a.99.99,0,0,1,.429-.183l3.5-.585A2.979,2.979,0,0,0,42.579,39.8a4.058,4.058,0,0,0-4.769-3.181,2.05,2.05,0,0,1-2.113-.875l-.865-1.3a1,1,0,0,0-1.664,1.11l.865,1.3A4.039,4.039,0,0,0,38.2,38.579a2.058,2.058,0,0,1,1.543.306,2.033,2.033,0,0,1,.874,1.3.981.981,0,0,1-.8,1.16l-3.5.585a2.981,2.981,0,0,0-1.3.555l-2.642,1.981a.624.624,0,0,1-.745,0L28.986,42.49a2.982,2.982,0,0,0-1.3-.555l-3.506-.585a.981.981,0,0,1-.8-1.161A2.034,2.034,0,0,1,24.256,38.885Z"/><path d="M43.758,46.03l-10.89,2.722a3.619,3.619,0,0,1-1.737,0L20.242,46.03a1,1,0,0,0-1.19,1.286l1.588,4.765-.384,2.3a2.137,2.137,0,0,0,2.3,2.48c.034,0,.067-.008.1-.014L30.72,55.27a6.642,6.642,0,0,1,2.56,0l8.062,1.579c.034.006.067.011.1.014.067.006.133.009.2.009a2.137,2.137,0,0,0,2.1-2.488l-.384-2.3,1.588-4.765a1,1,0,0,0-1.19-1.286Zm-2.411,6.134.424,2.549a.125.125,0,0,1-.034.115.128.128,0,0,1-.085.043l-7.987-1.564a8.637,8.637,0,0,0-3.33,0l-7.987,1.564a.128.128,0,0,1-.085-.043.126.126,0,0,1-.034-.116l.424-2.548a.979.979,0,0,0-.038-.48l-1.091-3.272,9.122,2.279a5.564,5.564,0,0,0,2.708,0l9.122-2.279-1.091,3.272A.979.979,0,0,0,41.347,52.164Z"/><path d="M26.486,21.374A12.765,12.765,0,0,1,32,20a12.765,12.765,0,0,1,5.514,1.374,1,1,0,0,0,.973-1.747A14.611,14.611,0,0,0,32,18a14.611,14.611,0,0,0-6.487,1.627,1,1,0,0,0,.973,1.747Z"/><path d="M26.486,17.374A12.765,12.765,0,0,1,32,16a12.765,12.765,0,0,1,5.514,1.374,1,1,0,0,0,.973-1.747A14.611,14.611,0,0,0,32,14a14.611,14.611,0,0,0-6.487,1.627,1,1,0,0,0,.973,1.747Z"/><path d="M60.54,11.158a1,1,0,0,0-1.095.01l-7.764,5.176a10.75,10.75,0,0,0-.785-2.11c1.237-2.164,2.327-4.829,2.147-7.342a6.475,6.475,0,0,0-2.4-4.661,1,1,0,0,0-1.535.321,46.967,46.967,0,0,1-4.17,6.233A11.326,11.326,0,0,0,40.81,8H23.19a11.326,11.326,0,0,0-4.126.785,46.967,46.967,0,0,1-4.17-6.233,1,1,0,0,0-.69-.531,1.013,1.013,0,0,0-.845.21,6.475,6.475,0,0,0-2.4,4.661c-.18,2.513.91,5.178,2.147,7.342a10.678,10.678,0,0,0-.784,2.111L4.555,11.168a1,1,0,0,0-1.542.99L6.335,32.925a12.442,12.442,0,0,0,4.318,7.588l2.595,2.163.544,10.308A9.667,9.667,0,0,0,23.55,62h16.9a9.669,9.669,0,0,0,9.759-9.018l.543-10.306,2.594-2.163a12.439,12.439,0,0,0,4.319-7.588l3.322-20.767A1,1,0,0,0,60.54,11.158Zm-10.332-6.5a4.464,4.464,0,0,1,.84,2.369c.259,3.586-2.844,7.892-4.189,9.576l-3.43-2.745A73.647,73.647,0,0,0,50.208,4.662ZM12.952,7.031a4.464,4.464,0,0,1,.84-2.369,73.647,73.647,0,0,0,6.779,9.2l-3.43,2.745C15.8,14.923,12.693,10.617,12.952,7.031ZM11.934,38.976A10.435,10.435,0,0,1,8.31,32.608L5.349,14.1l6.677,4.451c0,.138-.025.271-.025.411l.16,2.948a1.684,1.684,0,0,1-.444,1.218L10.693,24.2a5.321,5.321,0,0,0-.984,5.86l3.253,7.178.143,2.711ZM40.45,60H23.55a7.667,7.667,0,0,1-7.761-7.123l-.84-15.93-.011-.188L11.532,29.24a3.328,3.328,0,0,1,.612-3.66l1.025-1.075a3.708,3.708,0,0,0,.99-2.689L14,18.91a8.59,8.59,0,0,1,.417-2.6,26.42,26.42,0,0,0,1.84,2.36,1,1,0,0,0,1.368.112l5-4a1,1,0,0,0,.134-1.431c-.891-1.04-1.682-2-2.4-2.907A9.368,9.368,0,0,1,23.19,10H40.81a9.368,9.368,0,0,1,2.833.443c-.72.9-1.511,1.867-2.4,2.907a1,1,0,0,0,.134,1.431l5,4a1,1,0,0,0,1.368-.112,26.425,26.425,0,0,0,1.841-2.361A8.417,8.417,0,0,1,50,18.856l-.16,2.972a3.705,3.705,0,0,0,.995,2.683l1.018,1.065a3.331,3.331,0,0,1,.615,3.661l-3.407,7.522-.85,16.116A7.669,7.669,0,0,1,40.45,60ZM55.69,32.608a10.431,10.431,0,0,1-3.625,6.368l-1.17.975.143-2.71,3.254-7.18A5.324,5.324,0,0,0,53.3,24.2l-1.016-1.063a1.681,1.681,0,0,1-.449-1.212L52,18.91c0-.121-.019-.239-.023-.36L58.651,14.1Z"/><text x="0" y="79" fill="#000000" font-size="5px" font-weight="bold" font-family="'Helvetica Neue', Helvetica, Arial-Unicode, Arial, Sans-serif">Created by Mavadee</text><text x="0" y="84" fill="#000000" font-size="5px" font-weight="bold" font-family="'Helvetica Neue', Helvetica, Arial-Unicode, Arial, Sans-serif">from the Noun Project</text></svg>