<?xml version="1.0" encoding="UTF-8" standalone="no"?>
<svg
   xmlns:dc="http://purl.org/dc/elements/1.1/"
   xmlns:cc="http://creativecommons.org/ns#"
   xmlns:rdf="http://www.w3.org/1999/02/22-rdf-syntax-ns#"
   xmlns:svg="http://www.w3.org/2000/svg"
   xmlns="http://www.w3.org/2000/svg"
   xmlns:sodipodi="http://sodipodi.sourceforge.net/DTD/sodipodi-0.dtd"
   xmlns:inkscape="http://www.inkscape.org/namespaces/inkscape"
   inkscape:version="1.0 (4035a4fb49, 2020-05-01)"
   height="100mm"
   width="100mm"
   sodipodi:docname="screengraphic.svg"
   id="svg54"
   version="1.1"
   y="0px"
   x="0px"
   viewBox="0 0 377.95275 377.95275">
  <metadata
     id="metadata60">
    <rdf:RDF>
      <cc:Work
         rdf:about="">
        <dc:format>image/svg+xml</dc:format>
        <dc:type
           rdf:resource="http://purl.org/dc/dcmitype/StillImage" />
        <dc:title></dc:title>
      </cc:Work>
    </rdf:RDF>
  </metadata>
  <defs
     id="defs58" />
  <sodipodi:namedview
     inkscape:current-layer="svg54"
     inkscape:window-maximized="1"
     inkscape:window-y="-9"
     inkscape:window-x="-9"
     inkscape:cy="182.19863"
     inkscape:cx="209.35354"
     inkscape:zoom="1.838075"
     units="mm"
     inkscape:document-units="mm"
     showgrid="false"
     id="namedview56"
     inkscape:window-height="1001"
     inkscape:window-width="1920"
     inkscape:pageshadow="2"
     inkscape:pageopacity="0"
     guidetolerance="10"
     gridtolerance="10"
     objecttolerance="10"
     borderopacity="1"
     bordercolor="#666666"
     pagecolor="#ffffff" />
  <g
     transform="matrix(6.1959516,0,0,6.1959516,-15.491928,-9.2983808)"
     id="g69">
    <path
       d="m 22.629,32.929 a 6.427,6.427 0 0 0 2.392,0.5 4.686,4.686 0 0 0 2.8,-0.907 6.96,6.96 0 0 0 2.606,-4.847 3.431,3.431 0 0 0 -2.345,-3.033 l -10.77,-3.59 a 1.0011773,1.0011773 0 0 0 -0.632,1.9 l 1.074,0.359 a 7.24,7.24 0 0 0 -0.228,4.948 c 0.704,2.024 2.419,3.596 5.103,4.67 z m -2.97,-8.989 7.794,2.6 A 1.428,1.428 0 0 1 28.434,27.768 5.139,5.139 0 0 1 26.505,31 3.27,3.27 0 0 1 23.371,31.067 C 21.26,30.223 19.933,29.061 19.427,27.615 a 5.319,5.319 0 0 1 0.232,-3.675 z"
       id="path36"
       style="fill:none;stroke:#000000" />
    <path
       d="m 46.684,21.052 -10.77,3.589 a 3.433,3.433 0 0 0 -2.345,3.034 6.96,6.96 0 0 0 2.606,4.847 4.686,4.686 0 0 0 2.8,0.907 6.431,6.431 0 0 0 2.392,-0.5 c 2.684,-1.074 4.4,-2.646 5.1,-4.674 a 7.24,7.24 0 0 0 -0.228,-4.948 l 1.074,-0.359 a 1.0011773,1.0011773 0 0 0 -0.632,-1.9 z m -2.1,6.551 c -0.5,1.454 -1.831,2.621 -3.95,3.468 A 3.276,3.276 0 0 1 37.495,31 a 5.18,5.18 0 0 1 -1.93,-3.192 1.44,1.44 0 0 1 0.982,-1.274 l 7.793,-2.6 a 5.342,5.342 0 0 1 0.239,3.666 z"
       id="path38"
       style="fill:none;stroke:#000000" />
    <path
       d="m 24.256,38.885 a 2.049,2.049 0 0 1 1.542,-0.306 4.042,4.042 0 0 0 4.169,-1.726 l 0.865,-1.3 a 1.0001245,1.0001245 0 0 0 -1.664,-1.11 l -0.865,1.3 a 2.05,2.05 0 0 1 -2.114,0.875 4.059,4.059 0 0 0 -4.768,3.18 2.98,2.98 0 0 0 2.432,3.524 l 3.507,0.585 a 0.992,0.992 0 0 1 0.427,0.183 l 2.64,1.98 a 2.63,2.63 0 0 0 3.145,0 l 2.641,-1.98 a 0.99,0.99 0 0 1 0.429,-0.183 l 3.5,-0.585 A 2.979,2.979 0 0 0 42.579,39.8 4.058,4.058 0 0 0 37.81,36.619 2.05,2.05 0 0 1 35.697,35.744 l -0.865,-1.3 a 1.0001245,1.0001245 0 0 0 -1.664,1.11 l 0.865,1.3 a 4.039,4.039 0 0 0 4.167,1.725 2.058,2.058 0 0 1 1.543,0.306 2.033,2.033 0 0 1 0.874,1.3 0.981,0.981 0 0 1 -0.8,1.16 l -3.5,0.585 a 2.981,2.981 0 0 0 -1.3,0.555 l -2.642,1.981 a 0.624,0.624 0 0 1 -0.745,0 L 28.986,42.49 a 2.982,2.982 0 0 0 -1.3,-0.555 L 24.18,41.35 a 0.981,0.981 0 0 1 -0.8,-1.161 2.034,2.034 0 0 1 0.876,-1.304 z"
       id="path40"
       style="fill:none;stroke:#000000" />
    <path
       d="m 43.758,46.03 -10.89,2.722 a 3.619,3.619 0 0 1 -1.737,0 L 20.242,46.03 a 1,1 0 0 0 -1.19,1.286 l 1.588,4.765 -0.384,2.3 a 2.137,2.137 0 0 0 2.3,2.48 c 0.034,0 0.067,-0.008 0.1,-0.014 L 30.72,55.27 a 6.642,6.642 0 0 1 2.56,0 l 8.062,1.579 c 0.034,0.006 0.067,0.011 0.1,0.014 0.067,0.006 0.133,0.009 0.2,0.009 a 2.137,2.137 0 0 0 2.1,-2.488 l -0.384,-2.3 1.588,-4.765 a 1,1 0 0 0 -1.19,-1.286 z m -2.411,6.134 0.424,2.549 a 0.125,0.125 0 0 1 -0.034,0.115 0.128,0.128 0 0 1 -0.085,0.043 l -7.987,-1.564 a 8.637,8.637 0 0 0 -3.33,0 l -7.987,1.564 a 0.128,0.128 0 0 1 -0.085,-0.043 0.126,0.126 0 0 1 -0.034,-0.116 l 0.424,-2.548 a 0.979,0.979 0 0 0 -0.038,-0.48 l -1.091,-3.272 9.122,2.279 a 5.564,5.564 0 0 0 2.708,0 l 9.122,-2.279 -1.091,3.272 a 0.979,0.979 0 0 0 -0.038,0.48 z"
       id="path42"
       style="fill:none;stroke:#000000" />
    <path
       d="M 26.486,21.374 A 12.765,12.765 0 0 1 32,20 12.765,12.765 0 0 1 37.514,21.374 1,1 0 0 0 38.487,19.627 14.611,14.611 0 0 0 32,18 a 14.611,14.611 0 0 0 -6.487,1.627 1,1 0 0 0 0.973,1.747 z"
       id="path44"
       style="fill:none;stroke:#000000" />
    <path
       d="M 26.486,17.374 A 12.765,12.765 0 0 1 32,16 12.765,12.765 0 0 1 37.514,17.374 1,1 0 0 0 38.487,15.627 14.611,14.611 0 0 0 32,14 a 14.611,14.611 0 0 0 -6.487,1.627 1,1 0 0 0 0.973,1.747 z"
       id="path46"
       style="fill:none;stroke:#000000" />
    <path
       d="m 60.54,11.158 a 1,1 0 0 0 -1.095,0.01 l -7.764,5.176 a 10.75,10.75 0 0 0 -0.785,-2.11 C 52.133,12.07 53.223,9.405 53.043,6.892 A 6.475,6.475 0 0 0 50.643,2.231 1,1 0 0 0 49.108,2.552 46.967,46.967 0 0 1 44.938,8.785 11.326,11.326 0 0 0 40.81,8 H 23.19 a 11.326,11.326 0 0 0 -4.126,0.785 46.967,46.967 0 0 1 -4.17,-6.233 1,1 0 0 0 -0.69,-0.531 1.013,1.013 0 0 0 -0.845,0.21 6.475,6.475 0 0 0 -2.4,4.661 c -0.18,2.513 0.91,5.178 2.147,7.342 a 10.678,10.678 0 0 0 -0.784,2.111 L 4.555,11.168 a 1,1 0 0 0 -1.542,0.99 l 3.322,20.767 a 12.442,12.442 0 0 0 4.318,7.588 l 2.595,2.163 0.544,10.308 A 9.667,9.667 0 0 0 23.55,62 h 16.9 a 9.669,9.669 0 0 0 9.759,-9.018 l 0.543,-10.306 2.594,-2.163 a 12.439,12.439 0 0 0 4.319,-7.588 l 3.322,-20.767 a 1,1 0 0 0 -0.447,-1 z m -10.332,-6.5 a 4.464,4.464 0 0 1 0.84,2.369 c 0.259,3.586 -2.844,7.892 -4.189,9.576 l -3.43,-2.745 A 73.647,73.647 0 0 0 50.208,4.662 Z M 12.952,7.031 a 4.464,4.464 0 0 1 0.84,-2.369 73.647,73.647 0 0 0 6.779,9.2 l -3.43,2.745 C 15.8,14.923 12.693,10.617 12.952,7.031 Z M 11.934,38.976 A 10.435,10.435 0 0 1 8.31,32.608 L 5.349,14.1 l 6.677,4.451 c 0,0.138 -0.025,0.271 -0.025,0.411 l 0.16,2.948 a 1.684,1.684 0 0 1 -0.444,1.218 L 10.693,24.2 a 5.321,5.321 0 0 0 -0.984,5.86 l 3.253,7.178 0.143,2.711 z M 40.45,60 h -16.9 a 7.667,7.667 0 0 1 -7.761,-7.123 l -0.84,-15.93 -0.011,-0.188 -3.406,-7.519 a 3.328,3.328 0 0 1 0.612,-3.66 l 1.025,-1.075 a 3.708,3.708 0 0 0 0.99,-2.689 L 14,18.91 a 8.59,8.59 0 0 1 0.417,-2.6 26.42,26.42 0 0 0 1.84,2.36 1,1 0 0 0 1.368,0.112 l 5,-4 a 1,1 0 0 0 0.134,-1.431 c -0.891,-1.04 -1.682,-2 -2.4,-2.907 A 9.368,9.368 0 0 1 23.19,10 h 17.62 a 9.368,9.368 0 0 1 2.833,0.443 c -0.72,0.9 -1.511,1.867 -2.4,2.907 a 1,1 0 0 0 0.134,1.431 l 5,4 a 1,1 0 0 0 1.368,-0.112 26.425,26.425 0 0 0 1.841,-2.361 8.417,8.417 0 0 1 0.414,2.548 l -0.16,2.972 a 3.705,3.705 0 0 0 0.995,2.683 l 1.018,1.065 a 3.331,3.331 0 0 1 0.615,3.661 l -3.407,7.522 -0.85,16.116 A 7.669,7.669 0 0 1 40.45,60 Z M 55.69,32.608 a 10.431,10.431 0 0 1 -3.625,6.368 l -1.17,0.975 0.143,-2.71 3.254,-7.18 A 5.324,5.324 0 0 0 53.3,24.2 L 52.284,23.137 A 1.681,1.681 0 0 1 51.835,21.925 L 52,18.91 c 0,-0.121 -0.019,-0.239 -0.023,-0.36 l 6.674,-4.45 z"
       id="path48"
       style="fill:none;stroke:#000000" />
  </g>
</svg>
